<svg version="1.1" xmlns="http://www.w3.org/2000/svg" xmlns:xlink="http://www.w3.org/1999/xlink" width="773.02394" height="621.33601" viewBox="0,0,773.02394,621.33601"><g transform="translate(92.35689,104.7077)"><g stroke-miterlimit="10"><path d="M-6.89333,281.10024v-257.03372h300.42158v257.03372z" fill="#ffffff" stroke="#000000" stroke-width="2"/><path d="M423.10307,351.11315v-181.26631h20.15605v181.26631z" fill="#ffffff" stroke="#000000" stroke-width="2"/><path d="M10.38331,191.90575v-181.26635h204.92014v181.26635z" fill="#ffffff" stroke="#000000" stroke-width="2"/><path d="M-91.35689,320.24227v-326.08759h601.80293v326.08759z" fill="#ffffff" stroke="#000000" stroke-width="2"/><path d="M578.59284,46.15721v-86.3173h7.67848v86.3173z" fill="#ffffff" stroke="#000000" stroke-width="2"/><path d="M587.23117,162.20607v-265.91377h35.51305v265.91377z" fill="#ffffff" stroke="#000000" stroke-width="2"/><path d="M-47.73338,515.62831v-561.62398h727.40043v561.62398z" fill="#ffffff" stroke="#000000" stroke-width="2"/><text transform="translate(428.65993,200.61037) scale(0.67623,0.67623)" font-size="40" xml:space="preserve" fill="#000000" stroke="none" stroke-width="1" font-family="Sans Serif" font-weight="normal" text-anchor="start"><tspan x="0" dy="0">Klikaj w słoik!</tspan><tspan x="0" dy="46.150000000000006px"> </tspan></text><path d="M391.59174,44.707v-47.73251h245.47292v47.73251z" fill="#ffffff" stroke="#000000" stroke-width="0.5"/><path d="M389.56078,353.39097v-307.3082h247.9128v307.3082z" fill="#ffffff" stroke="#000000" stroke-width="0.5"/><text transform="translate(417.04829,29.60442) scale(0.67623,0.67623)" font-size="40" xml:space="preserve" fill="#000000" stroke="none" stroke-width="1" font-family="Sans Serif" font-weight="normal" text-anchor="start"><tspan x="0" dy="0">Click on the Jar</tspan></text><path d="M390.1795,484.74721v-131.1883h246.14712v131.1883z" fill="#ffffff" stroke="#000000" stroke-width="0.5"/><text transform="translate(400.99916,380.60804) scale(0.67623,0.67623)" font-size="40" xml:space="preserve" fill="#000000" stroke="none" stroke-width="1" font-family="Pixel" font-weight="normal" text-anchor="start"><tspan x="0" dy="0"> </tspan></text><text transform="translate(401.53196,396.17564) scale(0.98647,1.23303)" font-size="40" xml:space="preserve" fill="#000000" stroke="none" stroke-width="1" font-family="Sans Serif" font-weight="normal" text-anchor="start"><tspan x="0" dy="0">Jam Clicker</tspan></text><text transform="translate(395.00971,416.22552) scale(0.4493,0.4493)" font-size="40" xml:space="preserve" fill="#000000" stroke="none" stroke-width="1" font-family="Handwriting" font-weight="normal" text-anchor="start"><tspan x="0" dy="0">by</tspan></text><text transform="translate(422.92828,425.14252) scale(0.67623,0.67623)" font-size="40" xml:space="preserve" fill="#000000" stroke="none" stroke-width="1" font-family="Pixel" font-weight="normal" text-anchor="start"><tspan x="0" dy="0">MrPC</tspan></text><path d="M225.11074,483.11994v-487.37178h168.5494v487.37178z" fill="#ffffff" stroke="#000000" stroke-width="0.5"/></g></g></svg>